#!OML:ASF C:\ViconDB\ViconDB\414\Spring2016\041811\Spring2016.ASF
:FULLY-SPECIFIED
:DEGREES
213
root 10.1393 18.2945 -15.87 -181.922 -1.3784 -178.896
lowerback 4.3331 -0.109771 -4.26121
upperback 1.43487 -0.385114 0.101682
thorax -0.925843 -0.221817 2.51498
lowerneck -9.48359 -3.1497 -8.71483
upperneck 18.4287 -7.88149 17.2539
head 8.26728 -3.46666 6.43436
rclavicle 8.39865e-015 1.66979e-014
rhumerus -47.1094 -22.9451 -80.9447
rradius 35.302
rwrist 38.5018
rhand -34.804 -14.8221
rfingers 7.12502
rthumb -7.9556 -44.6524
lclavicle 8.39865e-015 1.66979e-014
lhumerus -30.5279 -11.9189 90.7448
lradius 32.4363
lwrist -27.5328
lhand -28.953 15.4916
lfingers 7.12502
lthumb -2.30629 45.4589
rfemur 147.324 28.2973 -168.214
rtibia 51.2508
rfoot 16.4313 -69.5013
rtoes -5.725e-014
lfemur -6.67236 -6.66426 -20.7303
ltibia 25.2731
lfoot -20.3346 1.99285
ltoes -2.3059e-014
214
root 10.1353 18.2869 -16.0272 -181.925 -1.47855 -178.943
lowerback 4.3366 -0.132378 -4.39477
upperback 1.3941 -0.418577 0.174609
thorax -0.965469 -0.236098 2.66704
lowerneck -9.42051 -3.20377 -8.81805
upperneck 18.5001 -7.97218 17.2694
head 8.29659 -3.52084 6.45072
rclavicle 1.98785e-016 -1.19271e-014
rhumerus -47.5127 -22.9814 -80.8155
rradius 35.4258
rwrist 37.8643
rhand -34.8723 -14.7655
rfingers 7.12502
rthumb -8.02152 -44.5933
lclavicle 1.98785e-016 -1.19271e-014
lhumerus -30.2138 -12.3184 90.7683
lradius 33.1007
lwrist -27.4504
lhand -29.0654 15.5057
lfingers 7.12502
lthumb -2.41492 45.4717
rfemur 150.529 28.9878 -167.281
rtibia 49.2676
rfoot 12.1813 -67.9172
rtoes 7.4743e-014
lfemur -5.88697 -6.46644 -20.8267
ltibia 24.8717
lfoot -20.577 1.67163
ltoes 7.95139e-015
215
root 10.1267 18.2871 -16.1886 -181.906 -1.57702 -178.982
lowerback 4.30064 -0.224272 -4.43838
upperback 1.34264 -0.539342 0.186679
thorax -0.988196 -0.293881 2.7099
lowerneck -9.34503 -3.10533 -8.73564
upperneck 18.5747 -7.89332 17.2986
head 8.29274 -3.4865 6.45772
rclavicle 1.88845e-015 6.36111e-015
rhumerus -47.8493 -22.8602 -80.8513
rradius 35.4898
rwrist 37.3173
rhand -35.0707 -15.0997
rfingers 7.12502
rthumb -8.21305 -44.9201
lclavicle 1.88845e-015 6.36111e-015
lhumerus -30.002 -12.703 90.6717
lradius 33.9012
lwrist -26.6916
lhand -29.2206 15.2972
lfingers 7.12502
lthumb -2.56478 45.2615
rfemur 153.952 29.7771 -166.313
rtibia 47.0448
rfoot 7.10585 -66.1648
rtoes -1.22451e-013
lfemur -5.04149 -6.54082 -20.969
ltibia 24.3939
lfoot -20.9901 1.65917
ltoes -1.31198e-014
216
root 10.1219 18.288 -16.3516 -181.866 -1.68299 -179.182
lowerback 4.24091 -0.30814 -4.65668
upperback 1.2924 -0.657538 0.143621
thorax -0.994922 -0.351234 2.79358
lowerneck -9.29192 -4.87673 -8.33263
upperneck 19.2301 -7.40559 16.7642
head 8.44128 -2.05759 6.43943
rclavicle 4.09993e-015 2.06736e-014
rhumerus -48.0857 -22.6161 -80.9629
rradius 35.5025
rwrist 36.9764
rhand -35.2134 -15.5393
rfingers 7.12502
rthumb -8.35073 -45.3543
lclavicle 4.09993e-015 2.06736e-014
lhumerus -29.7714 -12.9543 90.4561
lradius 34.5889
lwrist -26.3986
lhand -29.3859 15.1037
lfingers 7.12502
lthumb -2.72444 45.066
rfemur 157.535 30.7537 -165.466
rtibia 44.6696
rfoot 1.67016 -64.1481
rtoes -6.52014e-014
lfemur -4.2393 -6.59952 -21.2818
ltibia 23.9728
lfoot -21.3088 1.57442
ltoes 1.03368e-014
